HIERARCHY
ROOT joint_Root
{
	OFFSET 0.0 0.0 0.0
	CHANNELS 6 Xposition Yposition Zposition Zrotation Xrotation Yrotation 
	JOINT Hips
	{
		OFFSET -0.726466 93.3139 -2.00062
		CHANNELS 6 Xposition Yposition Zposition Zrotation Xrotation Yrotation 
		JOINT Spine
		{
			OFFSET 15.7357 0.0 0.0
			CHANNELS 6 Xposition Yposition Zposition Zrotation Xrotation Yrotation 
			JOINT Chest
			{
				OFFSET 8.98455 -0.406207 0.0
				CHANNELS 6 Xposition Yposition Zposition Zrotation Xrotation Yrotation 
				JOINT Neck
				{
					OFFSET 16.3773 0.0 0.0
					CHANNELS 6 Xposition Yposition Zposition Zrotation Xrotation Yrotation 
					JOINT Head
					{
						OFFSET 6.45672 0.0 0.0
						CHANNELS 6 Xposition Yposition Zposition Zrotation Xrotation Yrotation 
						End Site
						{
							OFFSET 0.0 0.0 0.0
						}
					}
				}
				JOINT Shoulder_L
				{
					OFFSET 12.9942 -0.242716 4.98039
					CHANNELS 6 Xposition Yposition Zposition Zrotation Xrotation Yrotation 
					JOINT UpperArm_L
					{
						OFFSET 5.34809 0.0 0.0
						CHANNELS 6 Xposition Yposition Zposition Zrotation Xrotation Yrotation 
						JOINT LowerArm_L
						{
							OFFSET 24.3286 1.87007e-05 0.0
							CHANNELS 6 Xposition Yposition Zposition Zrotation Xrotation Yrotation 
							JOINT Hand_L
							{
								OFFSET 22.2916 0.0 0.0
								CHANNELS 6 Xposition Yposition Zposition Zrotation Xrotation Yrotation 
								End Site
								{
									OFFSET 0.0 0.0 0.0
								}
							}
						}
					}
				}
				JOINT Shoulder_R
				{
					OFFSET 12.9945 -0.242716 -4.98039
					CHANNELS 6 Xposition Yposition Zposition Zrotation Xrotation Yrotation 
					JOINT UpperArm_R
					{
						OFFSET -5.34813 0.0 0.0
						CHANNELS 6 Xposition Yposition Zposition Zrotation Xrotation Yrotation 
						JOINT LowerArm_R
						{
							OFFSET -24.3289 0.000322201 0.0
							CHANNELS 6 Xposition Yposition Zposition Zrotation Xrotation Yrotation 
							JOINT Hand_R
							{
								OFFSET -22.2915 -0.000108084 0.0
								CHANNELS 6 Xposition Yposition Zposition Zrotation Xrotation Yrotation 
								End Site
								{
									OFFSET 0.0 0.0 0.0
								}
							}
						}
					}
				}
			}
		}
		JOINT UpperLeg_L
		{
			OFFSET -2.19248 -6.46944 0.0
			CHANNELS 6 Xposition Yposition Zposition Zrotation Xrotation Yrotation 
			JOINT LowerLeg_L
			{
				OFFSET 39.0811 0.0 -1.23785e-05
				CHANNELS 6 Xposition Yposition Zposition Zrotation Xrotation Yrotation 
				JOINT Foot_L
				{
					OFFSET 40.9854 0.0 -1.26872e-05
					CHANNELS 6 Xposition Yposition Zposition Zrotation Xrotation Yrotation 
					JOINT Toes_L
					{
						OFFSET 11.7543 0.0 0.0
						CHANNELS 6 Xposition Yposition Zposition Zrotation Xrotation Yrotation 
						End Site
						{
							OFFSET 0.0 0.0 0.0
						}
					}
				}
			}
		}
		JOINT UpperLeg_R
		{
			OFFSET -2.19251 6.46944 0.0
			CHANNELS 6 Xposition Yposition Zposition Zrotation Xrotation Yrotation 
			JOINT LowerLeg_R
			{
				OFFSET -39.0811 -0.00228153 -0.0401928
				CHANNELS 6 Xposition Yposition Zposition Zrotation Xrotation Yrotation 
				JOINT Foot_R
				{
					OFFSET -40.9854 0.0 0.0
					CHANNELS 6 Xposition Yposition Zposition Zrotation Xrotation Yrotation 
					JOINT Toes_R
					{
						OFFSET -11.7543 0.0 0.0
						CHANNELS 6 Xposition Yposition Zposition Zrotation Xrotation Yrotation 
						End Site
						{
							OFFSET 0.0 0.0 0.0
						}
					}
				}
			}
		}
	}
}
MOTION
Frames:	6
Frame Time:	0.0333333
0.000000 0.000000 0.000000 0.000000 0.000000 -0.000000 -1.159200 92.486200 -2.032620 88.047300 -0.894758 3.477430 15.735700 0.000005 -0.000001 86.263200 85.388700 -85.877100 8.984550 -0.406207 -0.000000 1.439310 -0.622086 0.779434 16.377300 -0.000001 -0.000001 3.220240 -2.250160 0.595771 6.456720 -0.000001 -0.000000 0.890770 -1.039020 1.235120 12.994200 -0.242716 4.980390 -90.024600 0.079736 -72.843600 5.348090 -0.000007 -0.000001 -67.363500 37.281000 -15.430800 24.328600 0.000019 0.000005 2.466290 5.715430 -23.386600 22.291600 -0.000001 0.000005 2.706480 5.509140 -6.912490 12.994500 -0.242716 -4.980390 87.542600 7.288370 -71.310300 -5.348130 -0.000001 -0.000004 -62.808300 42.181500 -17.015400 -24.328900 0.000322 -0.000009 3.526510 9.596750 -20.291200 -22.291500 -0.000108 -0.000004 1.458020 5.308680 -0.163406 -2.192480 -6.469440 -0.000000 -175.350000 -6.352490 -3.857010 39.081100 -0.000007 -0.000012 -0.100407 0.245917 22.210200 40.985400 -0.000006 -0.000013 -0.568691 3.301880 -65.047800 11.754300 -0.000000 0.000003 -0.000033 -0.000392 -16.592900 -2.192510 6.469440 -0.000001 -179.771000 13.230300 178.363000 -39.081100 -0.002282 -0.040193 -0.049103 0.152945 18.920500 -40.985400 0.000008 0.000006 2.777990 7.711520 -64.269100 -11.754300 -0.000006 -0.000006 -0.007397 -0.083037 -19.953800
0.000000 0.000000 0.000000 0.000000 0.000000 -0.000000 -1.160230 92.477500 -2.125700 88.022600 -0.774903 3.606120 15.735700 0.000005 -0.000001 85.239900 85.322500 -84.853700 8.984550 -0.406207 -0.000000 1.559560 -0.796802 0.782646 16.377300 -0.000001 -0.000001 3.333770 -2.272560 0.555060 6.456720 -0.000001 -0.000000 0.797141 -1.064020 1.368740 12.994200 -0.242716 4.980390 -90.085900 0.275649 -72.685600 5.348090 -0.000007 -0.000001 -66.085200 34.840500 -16.352900 24.328600 0.000019 0.000005 2.927990 5.875090 -26.550100 22.291600 -0.000001 0.000005 2.473110 5.544620 -8.452020 12.994500 -0.242716 -4.980390 87.413300 7.563310 -71.056000 -5.348130 -0.000001 -0.000004 -59.267600 41.664300 -19.587500 -24.328900 0.000322 -0.000009 4.328120 9.741240 -24.106200 -22.291500 -0.000108 -0.000004 -3.710220 5.293670 0.252818 -2.192480 -6.469440 -0.000000 -175.325000 -6.231530 -3.898720 39.081100 -0.000007 -0.000012 -0.102212 0.248556 22.353700 40.985400 -0.000006 -0.000013 -0.562095 3.302670 -65.030500 11.754300 -0.000000 0.000003 -0.000024 -0.000301 -16.589300 -2.192510 6.469440 -0.000001 -179.757000 13.326100 178.376000 -39.081100 -0.002282 -0.040193 -0.048387 0.149832 19.040600 -40.985400 0.000008 0.000006 2.867080 7.655410 -64.285600 -11.754300 -0.000006 -0.000006 -0.007704 -0.085598 -20.058400
0.000000 0.000000 0.000000 0.000000 0.000000 -0.000000 -1.161650 92.488000 -2.328980 88.023700 -0.767801 3.685850 15.735700 0.000005 -0.000001 85.272200 85.294200 -84.899500 8.984550 -0.406207 -0.000000 1.616340 -0.795289 0.756118 16.377300 -0.000001 -0.000001 3.618350 -2.355520 0.549030 6.456720 -0.000001 -0.000000 0.824569 -1.171810 1.362380 12.994200 -0.242716 4.980390 -90.159500 0.508304 -72.582700 5.348090 -0.000007 -0.000001 -63.108300 31.592800 -18.865400 24.328600 0.000019 0.000005 3.220480 5.257040 -31.555400 22.291600 -0.000001 0.000005 4.234960 5.567430 -9.544210 12.994500 -0.242716 -4.980390 87.342100 7.625300 -70.718000 -5.348130 -0.000001 -0.000004 -55.006900 39.498100 -23.239400 -24.328900 0.000322 -0.000009 4.727210 8.397310 -29.526100 -22.291500 -0.000108 -0.000004 -4.601700 5.271390 0.860684 -2.192480 -6.469440 -0.000000 -175.320000 -6.317900 -3.969580 39.081100 -0.000007 -0.000012 -0.101989 0.247819 22.369500 40.985400 -0.000006 -0.000013 -0.540394 3.381310 -64.894600 11.754300 -0.000000 0.000003 -0.000034 -0.000407 -16.593400 -2.192510 6.469440 -0.000001 -179.711000 13.301600 178.265000 -39.081100 -0.002282 -0.040193 -0.044027 0.136558 19.123300 -40.985400 0.000008 0.000006 3.074330 7.591020 -64.213900 -11.754300 -0.000006 -0.000006 -0.007609 -0.084814 -20.026400
0.000000 0.000000 0.000000 0.000000 0.000000 -0.000000 -1.157470 92.481300 -2.537360 88.071700 -0.812066 3.906360 15.735700 0.000005 -0.000001 85.374200 85.288600 -85.039400 8.984550 -0.406207 -0.000000 1.628550 -0.777444 0.679986 16.377300 -0.000001 -0.000001 4.221700 -2.404740 0.594449 6.456720 -0.000001 -0.000000 1.113650 -1.225950 1.245920 12.994200 -0.242716 4.980390 -90.178100 0.564044 -72.475200 5.348090 -0.000007 -0.000001 -59.610800 26.906200 -22.336700 24.328600 0.000019 0.000005 3.478010 4.466120 -37.973900 22.291600 -0.000001 0.000005 7.156060 5.593800 -10.972700 12.994500 -0.242716 -4.980390 87.339200 7.504230 -70.412300 -5.348130 -0.000001 -0.000004 -50.728900 35.453800 -27.713600 -24.328900 0.000322 -0.000009 6.153230 8.578390 -35.859100 -22.291500 -0.000108 -0.000004 -1.284770 5.289250 0.375674 -2.192480 -6.469440 -0.000000 -175.343000 -6.443560 -3.941480 39.081100 -0.000007 -0.000012 -0.101481 0.245375 22.468800 40.985400 -0.000006 -0.000013 -0.517279 3.460650 -64.796300 11.754300 -0.000000 0.000003 -0.000028 -0.000338 -16.590800 -2.192510 6.469440 -0.000001 -179.808000 13.301400 178.254000 -39.081100 -0.002282 -0.040193 -0.049938 0.152261 19.279700 -40.985400 0.000008 0.000006 2.821160 7.634850 -64.093700 -11.754300 -0.000006 -0.000006 -0.007653 -0.085177 -20.041200
0.000000 0.000000 0.000000 0.000000 0.000000 -0.000000 -1.164260 92.493700 -2.737500 88.063500 -0.843313 4.102420 15.735700 0.000005 -0.000001 85.330100 85.326700 -85.005600 8.984550 -0.406207 -0.000000 1.551980 -0.778133 0.658924 16.377300 -0.000001 -0.000001 4.649900 -2.382910 0.540924 6.456720 -0.000001 -0.000000 1.908240 -1.269190 1.185660 12.994200 -0.242716 4.980390 -90.095300 0.302803 -72.524400 5.348090 -0.000007 -0.000001 -56.908700 20.537400 -26.112000 24.328600 0.000019 0.000005 3.971170 3.873240 -45.781800 22.291600 -0.000001 0.000005 9.599890 5.607350 -11.785000 12.994500 -0.242716 -4.980390 87.389400 7.297610 -70.254500 -5.348130 -0.000001 -0.000004 -47.098600 29.454900 -32.536300 -24.328900 0.000322 -0.000009 8.211600 8.945640 -42.862400 -22.291500 -0.000108 -0.000004 1.957710 5.288540 0.389336 -2.192480 -6.469440 -0.000000 -175.318000 -6.488860 -3.876590 39.081100 -0.000007 -0.000012 -0.098562 0.238381 22.463400 40.985400 -0.000006 -0.000013 -0.507753 3.499120 -64.657000 11.754300 -0.000000 0.000003 -0.000032 -0.000379 -16.592400 -2.192510 6.469440 -0.000001 -179.838000 13.380300 178.339000 -39.081100 -0.002282 -0.040193 -0.052082 0.158786 19.235300 -40.985400 0.000008 0.000006 2.717930 7.780740 -63.919200 -11.754300 -0.000006 -0.000006 -0.007333 -0.082499 -19.931900
0.000000 0.000000 0.000000 0.000000 0.000000 -0.000000 -1.167810 92.490900 -2.900410 88.021000 -0.936629 4.231750 15.735700 0.000005 -0.000001 85.645900 85.393700 -85.321000 8.984550 -0.406207 -0.000000 1.422280 -0.717049 0.658136 16.377300 -0.000001 -0.000001 4.765120 -2.333210 0.580550 6.456720 -0.000001 -0.000000 2.562230 -1.208050 0.995351 12.994200 -0.242716 4.980390 -89.963500 -0.115900 -72.503600 5.348090 -0.000007 -0.000001 -54.757600 13.590200 -30.442000 24.328600 0.000019 0.000005 4.906870 3.543110 -54.243000 22.291600 -0.000001 0.000005 11.741000 5.611610 -12.065000 12.994500 -0.242716 -4.980390 87.533300 6.913440 -70.308200 -5.348130 -0.000001 -0.000004 -45.006200 21.978700 -37.001900 -24.328900 0.000322 -0.000009 11.474200 9.594770 -50.606600 -22.291500 -0.000108 -0.000004 4.770790 5.278770 0.658215 -2.192480 -6.469440 -0.000000 -175.247000 -6.716180 -3.911520 39.081100 -0.000007 -0.000012 -0.098413 0.236614 22.583700 40.985400 -0.000006 -0.000013 -0.480875 3.596510 -64.600900 11.754300 -0.000000 0.000003 -0.000028 -0.000342 -16.590900 -2.192510 6.469440 -0.000001 -179.849000 13.362600 178.362000 -39.081100 -0.002282 -0.040193 -0.057628 0.174893 19.213700 -40.985400 0.000008 0.000006 2.383860 7.931940 -63.732800 -11.754300 -0.000006 -0.000006 -0.007559 -0.084392 -20.009200
